<?xml version="1.0" encoding="UTF-8" standalone="no"?>
<svg
   xmlns:dc="http://purl.org/dc/elements/1.1/"
   xmlns:cc="http://creativecommons.org/ns#"
   xmlns:rdf="http://www.w3.org/1999/02/22-rdf-syntax-ns#"
   xmlns:svg="http://www.w3.org/2000/svg"
   xmlns="http://www.w3.org/2000/svg"
   xmlns:sodipodi="http://sodipodi.sourceforge.net/DTD/sodipodi-0.dtd"
   xmlns:inkscape="http://www.inkscape.org/namespaces/inkscape"
   height="50"
   width="105"
   version="1.1"
   id="svg2"
   inkscape:version="0.48.4 r9939"
   sodipodi:docname="logo.svg">
  <defs
     id="defs34" />
  <sodipodi:namedview
     pagecolor="#ffffff"
     bordercolor="#666666"
     borderopacity="1"
     objecttolerance="10"
     gridtolerance="10"
     guidetolerance="10"
     inkscape:pageopacity="0"
     inkscape:pageshadow="2"
     inkscape:window-width="1600"
     inkscape:window-height="850"
     id="namedview32"
     showgrid="false"
     inkscape:zoom="5.8961827"
     inkscape:cx="73.070034"
     inkscape:cy="22.769241"
     inkscape:window-x="0"
     inkscape:window-y="0"
     inkscape:window-maximized="1"
     inkscape:current-layer="text3030" />
  <metadata
     id="metadata4">
    <rdf:RDF>
      <cc:Work
         rdf:about="">
        <dc:format>image/svg+xml</dc:format>
        <dc:type
           rdf:resource="http://purl.org/dc/dcmitype/StillImage" />
        <dc:title />
      </cc:Work>
    </rdf:RDF>
  </metadata>
  <path
     inkscape:connector-curvature="0"
     id="path8"
     d="m 18.812,0.1378 c -10.342,0 -18.725,8.3825 -18.725,18.725 0,10.343 8.3828,18.724 18.725,18.724 10.343,0 18.725,-8.3819 18.725,-18.724 0,-10.343 -8.382,-18.725 -18.725,-18.725 z m 0,3.643 c 2.8921,0 4.238,0.7176 4.238,2.9982 0,2.2803 -3.353,4.4251 -4.238,4.4251 -0.88808,0 -4.242,-2.1448 -4.242,-4.4251 0,-2.2806 1.35,-2.9982 4.242,-2.9982 z M 6.31,19.4848 C 4.1402,18.7814 3.8713,17.2797 4.7616,14.5317 c 0.89254,-2.753 1.9888,-3.8163 4.1609,-3.1145 2.164,0.7035 3.1769,4.5541 2.9001,5.3962 -0.26973,0.8426 -3.3423,3.3727 -5.5126,2.6714 z m 9.0587,11.587 c -1.2532,1.9095 -2.7712,1.7806 -5.1974,0.202 -2.4155,-1.5796 -3.1538,-2.9171 -1.9095,-4.8248 1.2443,-1.9126 5.2219,-1.8764 5.9647,-1.3923 0.74408,0.4833 2.3798,4.1177 1.1422,6.0151 z m 3.4431,-9.3998 c -1.5515,0 -2.8083,-1.2563 -2.8083,-2.8086 0,-1.5524 1.2559,-2.8087 2.8083,-2.8087 1.5541,0 2.8091,1.2559 2.8091,2.8087 -4.47e-4,1.5518 -1.255,2.8086 -2.8091,2.8086 z m 8.8024,9.3494 c -2.3544,1.671 -3.8715,1.8703 -5.1885,0.018 -1.3232,-1.8582 0.17299,-5.5483 0.88853,-6.0584 0.72402,-0.5179 4.7043,-0.7053 6.0191,1.1405 1.3205,1.8644 0.64065,3.2314 -1.7191,4.9077 z m 3.691,-11.536 c -2.168,0.7009 -5.2411,-1.8288 -5.5108,-2.6714 -0.27864,-0.8425 0.73606,-4.6931 2.8979,-5.3962 2.1743,-0.7009 3.2706,0.362 4.1613,3.1145 0.88987,2.7454 0.62192,4.2497 -1.5484,4.9531 z m 17.289,26.531 -1.3085,3.9487 c -0.31431,-0.1022 -7.6695,-2.6128 -7.6695,-9.2785 0,-7.8724 6.2398,-9.7261 6.2398,-16.7 0,-3.173 -2.9545,-6.5456 -6.7155,-9.5269 -0.57199,-2.6527 -1.6451,-5.1204 -3.1248,-7.2918 6.4926,3.9861 14.002,10.055 14.002,16.819 0,4.3272 -1.839,7.0552 -3.4623,9.4617 -1.4926,2.2119 -2.7775,4.1195 -2.7775,7.2385 4.45e-4,3.6339 4.7668,5.3125 4.8167,5.3293 z" />
  <g
     transform="scale(0.93341493,1.0713349)"
     style="font-size:16.80146599px;font-style:normal;font-variant:normal;font-weight:bold;font-stretch:normal;text-align:start;line-height:125%;letter-spacing:0px;word-spacing:0px;writing-mode:lr-tb;text-anchor:start;fill:#000000;fill-opacity:1;stroke:none;font-family:Sawasdee;-inkscape-font-specification:Sawasdee Bold"
     id="text3030">
    <path
       d="M 62.777292,8.2083437 61.554919,8.6267396 61.464677,8.3560128 C 61.289655,7.8637925 61.010725,7.4891508 60.627885,7.2320866 60.245034,6.9750439 59.826638,6.8465172 59.372698,6.8465061 c -0.53052,1.11e-5 -0.962588,0.169557 -1.296207,0.5086382 -0.333626,0.3336331 -0.500437,0.7410901 -0.500434,1.2223722 -3e-6,0.2570628 0.06563,0.4895047 0.196892,0.6973265 0.136727,0.2078391 0.317211,0.3855888 0.541453,0.5332497 0.224235,0.1476771 0.484023,0.2898773 0.779365,0.4265993 0.295334,0.131269 0.604345,0.265265 0.927034,0.401989 0.322679,0.131268 0.645363,0.270733 0.968053,0.418395 0.322678,0.142207 0.631689,0.314488 0.927034,0.516842 0.295331,0.196899 0.555119,0.418402 0.779365,0.664512 0.22423,0.240651 0.40198,0.538724 0.53325,0.894218 0.136722,0.350035 0.205087,0.73835 0.205096,1.164946 -9e-6,0.72741 -0.194166,1.386451 -0.582473,1.977125 -0.388323,0.585209 -0.891491,1.033685 -1.509506,1.34543 -0.618029,0.306277 -1.279805,0.459415 -1.98533,0.459415 -0.464889,0 -0.91063,-0.07383 -1.337226,-0.221504 -0.426603,-0.147668 -0.825856,-0.366437 -1.197761,-0.656307 -0.36644,-0.289868 -0.68092,-0.675448 -0.943441,-1.156741 -0.262524,-0.486759 -0.43754,-1.041885 -0.525046,-1.66538 l -0.04102,-0.278931 1.288003,-0.155873 0.04102,0.262523 c 0.06563,0.443011 0.185951,0.836795 0.360969,1.181353 0.175012,0.339095 0.385577,0.609821 0.631695,0.812181 0.246112,0.196893 0.514104,0.347297 0.803977,0.451211 0.289865,0.09845 0.596141,0.14767 0.91883,0.147669 0.749279,1e-6 1.400116,-0.235175 1.952514,-0.70553 0.557854,-0.470351 0.836784,-1.08017 0.836792,-1.829457 -8e-6,-0.404719 -0.109392,-0.760218 -0.328154,-1.066499 -0.213307,-0.306272 -0.492237,-0.555121 -0.836791,-0.74655 -0.339099,-0.196886 -0.71921,-0.380105 -1.140334,-0.549657 -0.415667,-0.175009 -0.831327,-0.355493 -1.246984,-0.541453 -0.415665,-0.185947 -0.795776,-0.393778 -1.140334,-0.623492 -0.339095,-0.2297 -0.618025,-0.527773 -0.836792,-0.894219 -0.213302,-0.371899 -0.319951,-0.8012329 -0.31995,-1.288003 -10e-7,-0.8258431 0.287133,-1.5286381 0.861404,-2.1083871 0.574265,-0.5851952 1.31261,-0.8777986 2.215037,-0.8778109 0.716463,1.23e-5 1.380973,0.2078428 1.993533,0.6234919 0.612546,0.4156726 1.050084,1.0008793 1.312615,1.7556219 l 0.09845,0.2625229"
       style=""
       id="path3077" />
    <path
       d="m 65.394317,17.938099 0,-12.371392 10.098928,9.393398 0,-9.2703404 1.304411,0 0,12.3877994 -10.098929,-9.3933975 0,9.2539325 -1.30441,0"
       style=""
       id="path3079" />
    <path
       d="m 79.111138,5.6897646 1.30441,0 0,7.5311254 c -2e-6,1.000873 0.325416,1.848602 0.976257,2.543191 0.656303,0.689124 1.427464,1.033685 2.313483,1.033684 0.574263,1e-6 1.107512,-0.153137 1.599749,-0.459415 0.492223,-0.311744 0.886007,-0.743813 1.181353,-1.296207 0.300799,-0.552388 0.451203,-1.159472 0.451212,-1.821253 l 0,-7.5311254 1.30441,0 0,7.5311254 c -1e-5,0.869611 -0.202371,1.676322 -0.607084,2.420133 -0.404732,0.743817 -0.959858,1.334493 -1.66538,1.77203 -0.700068,0.432069 -1.468494,0.648103 -2.305279,0.648104 -0.623497,-1e-6 -1.219642,-0.128527 -1.788437,-0.385581 -0.563334,-0.257053 -1.04736,-0.601614 -1.45208,-1.033684 -0.399256,-0.437536 -0.719205,-0.954378 -0.959849,-1.550526 -0.235178,-0.596142 -0.352767,-1.219633 -0.352765,-1.870476 l 0,-7.5311254"
       style=""
       id="path3081" />
    <path
       d="m 90.530884,17.938099 0,-12.2483344 4.553132,0 c 0.9407,1.22e-5 1.739206,0.3336347 2.395521,1.0008686 0.656299,0.661787 0.984452,1.4602934 0.984461,2.3955215 -9e-6,0.9297763 -0.325428,1.7255483 -0.976257,2.3873173 -0.650846,0.661783 -1.438414,0.992671 -2.362706,0.992665 l -3.28974,0 0,5.471962 -1.304411,0 m 1.304411,-6.759965 3.28974,0 c 0.552385,7e-6 1.028208,-0.202354 1.427468,-0.607084 0.404715,-0.410184 0.607076,-0.905149 0.607084,-1.4848953 -8e-6,-0.5906671 -0.202369,-1.0938355 -0.607084,-1.5095067 -0.40473,-0.4156505 -0.894225,-0.623481 -1.468487,-0.6234919 l -3.248721,0 0,4.2249779"
       style=""
       id="path3083" />
    <path
       d="m 99.308993,5.6897646 1.501307,0 3.67532,5.6606504 3.65891,-5.6606504 1.5013,0 -4.52031,6.9978764 0,5.250458 -1.30441,0 0,-5.250458 -4.512117,-6.9978764"
       style=""
       id="path3085" />
  </g>
  <g
     transform="scale(0.93341493,1.0713349)"
     style="font-size:16.80146599px;font-style:normal;font-variant:normal;font-weight:bold;font-stretch:normal;text-align:start;line-height:125%;letter-spacing:0px;word-spacing:0px;writing-mode:lr-tb;text-anchor:start;fill:#ff0000;fill-opacity:1;stroke:none;font-family:Sawasdee;-inkscape-font-specification:Sawasdee Bold"
     id="text3030-8">
    <path
       d="m 81.044607,28.372699 0,1.263391 -5.750893,0 0,6.431812 -1.30441,0 0,-12.248335 7.572145,0 0,1.263392 -6.267735,0 0,3.28974 5.750893,0"
       style=""
       id="path3068" />
    <path
       d="m 84.81017,36.067902 -1.304411,0 0,-12.248335 1.304411,0 0,12.248335"
       style=""
       id="path3070" />
    <path
       d="m 94.687594,36.067902 -7.572145,0 0,-12.248335 1.304411,0 0,10.984943 6.267734,0 0,1.263392"
       style=""
       id="path3072" />
    <path
       d="m 96.927243,36.067902 -1.263391,0 2.526782,-12.354985 4.487506,9.237525 4.56953,-9.237525 2.46116,12.354985 -1.32082,0 -1.65718,-8.006949 -4.09371,8.130006 -3.98707,-8.130006 -1.722807,8.006949"
       style=""
       id="path3074" />
  </g>
</svg>
