<svg id="svg2" xmlns:rdf="http://www.w3.org/1999/02/22-rdf-syntax-ns#" xmlns="http://www.w3.org/2000/svg" height="50" width="100" version="1.1" xmlns:cc="http://creativecommons.org/ns#" xmlns:dc="http://purl.org/dc/elements/1.1/">
 <metadata id="metadata4">
  <rdf:RDF>
   <cc:Work rdf:about="">
    <dc:format>image/svg+xml</dc:format>
    <dc:type rdf:resource="http://purl.org/dc/dcmitype/StillImage"/>
    <dc:title/>
   </cc:Work>
  </rdf:RDF>
 </metadata>
 <rect id="rect2995" opacity="0.55" ry="4.8241" height="49.969" width="99.917" y="0.07153" x="0.079036" fill="#FFF"/>
 <path id="path8" opacity="0.7" d="m18.092,2.3878c-9.278,0-16.799,7.5202-16.799,16.799,0,9.2792,7.5206,16.798,16.799,16.798,9.2792,0,16.799-7.5198,16.799-16.798,0-9.2792-7.5199-16.799-16.799-16.799zm0,3.2683c2.5946,0,3.8021,0.64379,3.8021,2.6898,0,2.0458-3.0081,3.97-3.8021,3.97-0.79674,0-3.8057-1.9242-3.8057-3.97,0-2.046,1.2111-2.6898,3.8057-2.6898zm-11.216,14.089c-1.9466-0.631-2.1878-1.978-1.3891-4.444,0.80074-2.4698,1.7842-3.4238,3.7329-2.7942,1.9419,0.631,2.8499,4.086,2.6019,4.841-0.242,0.756-2.9986,3.026-4.9457,2.397zm8.1267,10.395c-1.1243,1.7131-2.4862,1.5975-4.6628,0.18122-2.1671-1.4171-2.8294-2.6171-1.7131-4.3285,1.1163-1.7159,4.6848-1.6834,5.3512-1.2491,0.66755,0.43359,2.135,3.6942,1.0247,5.3964zm3.089-8.433c-1.3919,0-2.5195-1.1271-2.5195-2.5197,0-1.3927,1.1267-2.5198,2.5195-2.5198,1.3943,0,2.5202,1.1267,2.5202,2.5198-0.000401,1.3922-1.1259,2.5197-2.5202,2.5197zm7.897,8.3878c-2.1122,1.4991-3.4733,1.6779-4.6548,0.01615-1.1871-1.6671,0.1552-4.9776,0.79714-5.4353,0.64955-0.46463,4.2204-0.63276,5.4,1.0232,1.1847,1.6726,0.57476,2.899-1.5423,4.4029zm3.3114-10.349c-1.945,0.62881-4.702-1.6407-4.944-2.3966-0.24998-0.75584,0.66035-4.2104,2.5998-4.8412,1.9507-0.62881,2.9342,0.32477,3.7333,2.7942,0.79834,2.463,0.55795,3.8126-1.3891,4.4436zm15.511,23.802-1.174,3.542c-0.28198-0.09169-6.8807-2.3441-6.8807-8.3242,0-7.0627,5.598-8.7257,5.598-14.982,0-2.8466-2.6506-5.8724-6.0248-8.547-0.51316-2.3799-1.4759-4.5937-2.8034-6.5418,5.8248,3.5761,12.562,9.0208,12.562,15.089,0,3.8821-1.6498,6.3295-3.1062,8.4885-1.3391,1.9844-2.4918,3.6958-2.4918,6.494,0.000399,3.2601,4.2765,4.7661,4.3213,4.7812z"/>
 <g id="g3802" font-size="16px" font-family="Sawasdee" font-weight="bold" transform="translate(-1.1311002,0)" font-stretch="normal" stroke-dasharray="none" font-variant="normal" stroke-miterlimit="4" stroke-width="0.5" font-style="normal">
  <g id="text2997" opacity="0.7" style="letter-spacing:0px;writing-mode:lr-tb;text-anchor:start;word-spacing:0px;text-align:start;" stroke="#000" line-height="125%" fill="#000">
   <path id="path2990" style="" d="M53.631,8.1661,52.467,8.5645,52.381,8.3067c-0.166-0.4687-0.432-0.8255-0.796-1.0703-0.365-0.2448-0.763-0.3672-1.196-0.3672-0.50521,0.0000105-0.91667,0.16147-1.2344,0.48438-0.31771,0.31772-0.47657,0.70574-0.47656,1.1641-0.000003,0.2448,0.0625,0.46615,0.1875,0.66406,0.1302,0.19792,0.30208,0.3672,0.51562,0.50781,0.21354,0.14063,0.46093,0.27605,0.74219,0.40625,0.28124,0.12501,0.57552,0.25261,0.88281,0.38281,0.30729,0.12501,0.61458,0.25782,0.92188,0.39844,0.30728,0.13542,0.60156,0.29948,0.88281,0.49219,0.28124,0.18751,0.52864,0.39844,0.74219,0.63281,0.21353,0.22917,0.3828,0.51302,0.50781,0.85156,0.1302,0.33334,0.1953,0.70313,0.19531,1.1094-0.000008,0.69271-0.1849,1.3203-0.55469,1.8828-0.3698,0.55729-0.84897,0.98438-1.4375,1.2812-0.58855,0.29167-1.2188,0.4375-1.8906,0.4375-0.44271-0.000001-0.86719-0.07031-1.2734-0.21094-0.40625-0.14062-0.78646-0.34896-1.1406-0.625-0.34896-0.27604-0.64844-0.64323-0.89844-1.1016-0.25-0.46354-0.41667-0.99218-0.5-1.5859l-0.03906-0.26562,1.2266-0.14844,0.03906,0.25c0.0625,0.42188,0.17708,0.79688,0.34375,1.125,0.16666,0.32292,0.36718,0.58073,0.60156,0.77344,0.23437,0.1875,0.48958,0.33073,0.76562,0.42969,0.27604,0.09375,0.5677,0.14063,0.875,0.14062,0.71354,0.000001,1.3333-0.22396,1.8594-0.67188,0.53124-0.44792,0.79687-1.0286,0.79688-1.7422-0.000007-0.38541-0.10417-0.72395-0.3125-1.0156-0.20313-0.29166-0.46876-0.52864-0.79688-0.71094-0.32292-0.1875-0.6849-0.36197-1.0859-0.52344-0.39584-0.16666-0.79167-0.33854-1.1875-0.51562-0.39584-0.17708-0.75782-0.37499-1.0859-0.59375-0.324-0.217-0.589-0.501-0.798-0.8502-0.203-0.3542-0.304-0.763-0.304-1.2266-0.000001-0.78645,0.27344-1.4557,0.82031-2.0078,0.54687-0.55728,1.25-0.83593,2.1094-0.83594,0.68229,0.0000118,1.3151,0.19793,1.8984,0.59375,0.58333,0.39584,0.99999,0.95314,1.25,1.6719l0.09375,0.25"/>
   <path id="path2992" style="" d="m56.124,17.432,0-11.781,9.6172,8.9453,0-8.8281,1.2422,0,0,11.797-9.6172-8.9453,0,8.8125-1.2422,0"/>
   <path id="path2994" style="" d="m69.186,5.7677,1.2422,0,0,7.1719c-0.000002,0.95313,0.30989,1.7604,0.92969,2.4219,0.625,0.65625,1.3594,0.98438,2.2031,0.98438,0.54687,0.000001,1.0547-0.14583,1.5234-0.4375,0.46874-0.29687,0.84374-0.70833,1.125-1.2344,0.28645-0.52604,0.42968-1.1042,0.42969-1.7344v-7.1719h1.2422v7.1719c-0.00001,0.82813-0.19272,1.5964-0.57812,2.3047-0.38542,0.70834-0.91407,1.2708-1.5859,1.6875-0.66667,0.41146-1.3984,0.61719-2.1953,0.61719-0.59376-0.000001-1.1615-0.1224-1.7031-0.36719-0.53646-0.24479-0.9974-0.57292-1.3828-0.98438-0.38021-0.41666-0.6849-0.90885-0.91406-1.4766-0.22396-0.5677-0.33594-1.1615-0.33594-1.7812v-7.1719"/>
   <path id="path2996" style="" d="m80.061,17.432,0-11.664,4.3359,0c0.89583,0.0000116,1.6562,0.31772,2.2812,0.95312,0.62499,0.63022,0.93749,1.3906,0.9375,2.2812-0.000008,0.88542-0.3099,1.6432-0.92969,2.2734-0.6198,0.63021-1.3698,0.94532-2.25,0.94531h-3.1328v5.2109h-1.2422m1.2422-6.4375,3.1328,0c0.52604,0.000007,0.97916-0.1927,1.3594-0.57812,0.38541-0.39062,0.57812-0.86197,0.57812-1.4141-0.000008-0.56249-0.19272-1.0417-0.57812-1.4375-0.38542-0.39582-0.85157-0.59374-1.3984-0.59375h-3.0938v4.0234"/>
   <path id="path2998" style="" d="m88.421,5.7677,1.4297,0,3.5,5.3906,3.4844-5.3906,1.4297,0-4.3047,6.6641,0,5-1.2422,0,0-5-4.2969-6.6641"/>
  </g>
  <g id="text2997-2" opacity="0.7" style="letter-spacing:0px;writing-mode:lr-tb;text-anchor:start;word-spacing:0px;text-align:start;" stroke="#F60" line-height="125%" fill="#F60">
   <path id="path3001" style="" d="m62.288,28.789,0,1.2031-5.4766,0,0,6.125-1.2422,0,0-11.664,7.2109,0,0,1.2031-5.9688,0,0,3.1328,5.4766,0"/>
   <path id="path3003" style="" d="m65.874,36.117-1.2422,0,0-11.664,1.2422,0,0,11.664"/>
   <path id="path3005" style="" d="m75.28,36.117-7.2109,0,0-11.664,1.2422,0,0,10.461,5.9688,0,0,1.2031"/>
   <path id="path3007" style="" d="m77.413,36.117-1.2031,0,2.4062-11.766,4.2734,8.7969,4.3516-8.7969,2.3438,11.766-1.2578,0-1.5781-7.625-3.8984,7.7422-3.7969-7.7422-1.6406,7.625"/>
   <path id="path3009" style="" d="m97.639,26.851-1.1641,0.39844-0.08594-0.25781c-0.16667-0.46874-0.4323-0.82551-0.79688-1.0703-0.36459-0.24478-0.76303-0.36718-1.1953-0.36719-0.50521,0.000011-0.91667,0.16147-1.2344,0.48438-0.31771,0.31772-0.47656,0.70574-0.47656,1.1641-0.000003,0.2448,0.0625,0.46615,0.1875,0.66406,0.1302,0.19792,0.30208,0.3672,0.51562,0.50781,0.21354,0.14063,0.46093,0.27605,0.74219,0.40625,0.28125,0.12501,0.57552,0.25261,0.88281,0.38281,0.30729,0.12501,0.61458,0.25782,0.92188,0.39844,0.30728,0.13542,0.60156,0.29948,0.88281,0.49219,0.28124,0.18751,0.52864,0.39844,0.74219,0.63281,0.21353,0.22917,0.3828,0.51302,0.50781,0.85156,0.1302,0.33334,0.1953,0.70313,0.19531,1.1094-0.000009,0.69271-0.1849,1.3203-0.55469,1.8828-0.3698,0.55729-0.84896,0.98438-1.4375,1.2812-0.58855,0.29167-1.2188,0.4375-1.8906,0.4375-0.44271-0.000001-0.86719-0.07031-1.2734-0.21094-0.40625-0.14062-0.78646-0.34896-1.1406-0.625-0.34896-0.27604-0.64844-0.64323-0.89844-1.1016-0.25-0.46354-0.41667-0.99218-0.5-1.5859l-0.03906-0.26562,1.2266-0.14844,0.03906,0.25c0.0625,0.42188,0.17708,0.79688,0.34375,1.125,0.16666,0.32292,0.36718,0.58073,0.60156,0.77344,0.23437,0.1875,0.48958,0.33073,0.76562,0.42969,0.27604,0.09375,0.5677,0.14063,0.875,0.14062,0.71354,0.000001,1.3333-0.22396,1.8594-0.67188,0.53124-0.44792,0.79687-1.0286,0.79688-1.7422-0.000007-0.38541-0.10417-0.72395-0.3125-1.0156-0.20313-0.29166-0.46876-0.52864-0.79688-0.71094-0.32292-0.1875-0.6849-0.36197-1.0859-0.52344-0.39584-0.16666-0.79167-0.33854-1.1875-0.51562-0.39584-0.17708-0.75782-0.37499-1.0859-0.59375-0.32292-0.21874-0.58854-0.5026-0.79688-0.85156-0.20313-0.35416-0.30469-0.76301-0.30469-1.2266-0.000002-0.78645,0.27344-1.4557,0.82031-2.0078,0.54687-0.55728,1.25-0.83593,2.1094-0.83594,0.68229,0.000012,1.3151,0.19793,1.8984,0.59375,0.58333,0.39584,0.99999,0.95314,1.25,1.6719l0.09375,0.25"/>
  </g>
 </g>
</svg>
