<svg xmlns:rdf="http://www.w3.org/1999/02/22-rdf-syntax-ns#" xmlns="http://www.w3.org/2000/svg" height="50" width="130" version="1.1" xmlns:cc="http://creativecommons.org/ns#" xmlns:dc="http://purl.org/dc/elements/1.1/">
 <metadata>
  <rdf:RDF>
   <cc:Work rdf:about="">
    <dc:format>image/svg+xml</dc:format>
    <dc:type rdf:resource="http://purl.org/dc/dcmitype/StillImage"/>
    <dc:title/>
   </cc:Work>
  </rdf:RDF>
 </metadata>
 <g transform="translate(0,-1002.3622)">
  <path d="m18.812,1002.5c-10.342,0-18.725,8.3825-18.725,18.725,0,10.343,8.3828,18.724,18.725,18.724,10.343,0,18.725-8.3819,18.725-18.724,0-10.343-8.382-18.725-18.725-18.725zm0,3.643c2.8921,0,4.238,0.7176,4.238,2.9982,0,2.2803-3.353,4.4251-4.238,4.4251-0.88808,0-4.242-2.1448-4.242-4.4251,0-2.2806,1.35-2.9982,4.242-2.9982zm-12.502,15.704c-2.1698-0.7034-2.4387-2.2051-1.5484-4.9531,0.89254-2.753,1.9888-3.8163,4.1609-3.1145,2.164,0.7035,3.1769,4.5541,2.9001,5.3962-0.26973,0.8426-3.3423,3.3727-5.5126,2.6714zm9.0587,11.587c-1.2532,1.9095-2.7712,1.7806-5.1974,0.202-2.4155-1.5796-3.1538-2.9171-1.9095-4.8248,1.2443-1.9126,5.2219-1.8764,5.9647-1.3923,0.74408,0.4833,2.3798,4.1177,1.1422,6.0151zm3.4431-9.3998c-1.5515,0-2.8083-1.2563-2.8083-2.8086,0-1.5524,1.2559-2.8087,2.8083-2.8087,1.5541,0,2.8091,1.2559,2.8091,2.8087-0.000447,1.5518-1.255,2.8086-2.8091,2.8086zm8.8024,9.3494c-2.3544,1.671-3.8715,1.8703-5.1885,0.018-1.3232-1.8582,0.17299-5.5483,0.88853-6.0584,0.72402-0.5179,4.7043-0.7053,6.0191,1.1405,1.3205,1.8644,0.64065,3.2314-1.7191,4.9077zm3.691-11.536c-2.168,0.7009-5.2411-1.8288-5.5108-2.6714-0.27864-0.8425,0.73606-4.6931,2.8979-5.3962,2.1743-0.7009,3.2706,0.362,4.1613,3.1145,0.88987,2.7454,0.62192,4.2497-1.5484,4.9531zm17.289,26.531-1.3085,3.9487c-0.31431-0.1022-7.6695-2.6128-7.6695-9.2785,0-7.8724,6.2398-9.7261,6.2398-16.7,0-3.173-2.9545-6.5456-6.7155-9.5269-0.57199-2.6527-1.6451-5.1204-3.1248-7.2918,6.4926,3.9861,14.002,10.055,14.002,16.819,0,4.3272-1.839,7.0552-3.4623,9.4617-1.4926,2.2119-2.7775,4.1195-2.7775,7.2385,0.000445,3.6339,4.7668,5.3125,4.8167,5.3293z"/>
  <g style="word-spacing:0px;letter-spacing:0px;writing-mode:lr-tb;text-anchor:start;text-align:start;" font-family="NanumBarunGothic" transform="matrix(0.39219617,0,0,0.50678702,100.77821,974.65771)" font-style="normal" font-stretch="normal" font-size="34.48335266px" font-variant="normal" font-weight="600" line-height="125%" fill="#000">
   <path d="m-113.38,132.26c-0.89658-0.87356-1.8851-1.5517-2.9656-2.0345-1.0575-0.50573-2.2184-0.75861-3.4828-0.75863-2.8276,0.00002-4.2415,1.023-4.2414,3.069-0.00001,1.0115,0.31034,1.8161,0.93105,2.4138,0.64368,0.57474,1.5172,1.092,2.6207,1.5518l2.3794,1.0345c2.092,0.91957,3.7012,2,4.8277,3.2414,1.1494,1.2414,1.7242,2.7587,1.7242,4.5518-0.00002,1.3334-0.22991,2.4943-0.68967,3.4828-0.45979,0.98852-1.115,1.8046-1.9656,2.4483-0.82762,0.64369-1.8276,1.115-3,1.4138-1.1495,0.32184-2.4253,0.48277-3.8276,0.48277-1.5173,0-2.9196-0.19541-4.207-0.58622s-2.4368-1.0345-3.4483-1.9311v-4.4828c0-0.13793,0.0575-0.22989,0.17242-0.27587,0.11494-0.069,0.21839-0.0575,0.31035,0.0345,0.48276,0.55174,0.97702,1.046,1.4828,1.4828,0.50576,0.43679,1.046,0.80461,1.6207,1.1035,0.57472,0.29885,1.1954,0.52874,1.8621,0.68966,0.68966,0.16093,1.4368,0.24139,2.2414,0.24139,1.7012,0,2.9196-0.31035,3.6552-0.93105,0.75862-0.64369,1.1379-1.6207,1.138-2.9311-0.00002-1.0115-0.34485-1.8506-1.0345-2.5173-0.68968-0.68966-1.6897-1.3219-3.0001-1.8966l-2.3794-1.0345c-0.85059-0.36781-1.6437-0.78161-2.3794-1.2414-0.71266-0.45976-1.3334-0.97701-1.8621-1.5518-0.50576-0.5977-0.90806-1.2759-1.2069-2.0345-0.29885-0.75861-0.44828-1.6437-0.44828-2.6552,0-1.1264,0.2069-2.115,0.6207-2.9656,0.4138-0.85057,1-1.5517,1.7586-2.1035,0.75863-0.5747,1.6667-1.0115,2.7242-1.3104,1.0575-0.29883,2.2184-0.44825,3.4828-0.44828,0.55173,0.00003,1.1379,0.0345,1.7587,0.10345,0.62068,0.069,1.2414,0.18394,1.8621,0.34483,0.62068,0.16095,1.2184,0.39084,1.7931,0.68967,0.5977,0.27589,1.1494,0.63222,1.6552,1.069v4.0001c-0.00002,0.13796-0.0575,0.24141-0.17242,0.31035-0.11496,0.046-0.21841,0.023-0.31035-0.069"/>
   <path d="m-93.248,144.81,0.96553,2.9656-0.03448-2.9656,0-18.621,4.1035,0,0,26.656-5.7242,0-8.4829-18.621-0.96554-2.9656,0.0345,2.9656,0,18.621-4.1035,0,0-26.656,5.7242,0,8.4829,18.621"/>
   <path d="m-73.492,153.15-0.06897,0c-1.8391,0-3.4598-0.35633-4.8622-1.069-1.3793-0.68967-2.4368-1.5862-3.1725-2.6897-0.6207-0.96553-1.0575-2.0575-1.3104-3.2759-0.22989-1.2184-0.34484-2.6552-0.34483-4.3104v-15.655h4.3449v15.38c-0.000007,1.4253,0.06896,2.6207,0.2069,3.5863,0.13793,0.96554,0.43678,1.7702,0.89657,2.4138,0.45977,0.62071,1.0345,1.1035,1.7242,1.4483,0.68966,0.32185,1.5402,0.48277,2.5518,0.48277,1.8851,0,3.2874-0.64369,4.207-1.9311,0.48275-0.64368,0.7931-1.4483,0.93105-2.4138,0.13792-0.96553,0.20688-2.161,0.2069-3.5863v-15.38h4.3449v15.655c-0.000022,1.6552-0.12646,3.092-0.37932,4.3104-0.22991,1.2184-0.6667,2.3104-1.3104,3.2759-0.73566,1.1035-1.8046,2-3.207,2.6897-1.3793,0.71265-2.9656,1.069-4.7587,1.069"/>
   <path d="m-42.067,134.26c-0.000019,1.3564-0.22991,2.5863-0.68967,3.6897-0.43681,1.0805-1.0575,2.0115-1.8621,2.7932-0.80463,0.75865-1.7931,1.3564-2.9656,1.7931-1.1495,0.4138-2.4253,0.6207-3.8277,0.6207h-3.3449v9.6898h-4.3449v-26.656h7.5519c1.5173,0.00002,2.8621,0.20692,4.0346,0.6207,1.1954,0.39083,2.1954,0.95406,3.0001,1.6897,0.80459,0.71268,1.4138,1.5633,1.8276,2.5518,0.41378,0.98854,0.62068,2.0575,0.6207,3.207m-4.3104,0.17242c-0.000015-1.4023-0.4483-2.5288-1.3448-3.3794-0.89658-0.87356-2.3794-1.3104-4.4484-1.3104h-2.6207v9.8622h2.2759c1.954,0.00001,3.4598-0.45976,4.5173-1.3793,1.0805-0.91954,1.6207-2.1839,1.6207-3.7932"/>
   <path d="m-24.413,126.19,4.6208,0-8.7243,14.724,0,11.931-4.3794,0,0-11.552-8.7588-15.104,4.6208,0,6.3449,11.138,0.06897,0,6.207-11.138"/>
  </g>
  <path style="text-align:start;" d="m101.37,1038.6,0,1.835-4.3322,0,0,3.4952,4.1559,0,0,1.8174-4.1559,0,0,6.3611-1.5868,0,0-13.509,5.919,0" fill="#ff7f2a"/>
  <path style="text-align:start;" d="m103.87,1038.6,0,13.509-1.5868,0,0-13.509,1.5868,0" fill="#ff7f2a"/>
  <path style="text-align:start;" d="m111.18,1050.3,0,1.8348-5.7553,0,0-13.509,1.5868,0,0,11.674,4.1685,0" fill="#ff7f2a"/>
  <path style="text-align:start;" d="m119.68,1042.5-2.1661,9.6464-1.5238,0-2.1535-9.6464-0.25186-1.4332,0.0251,1.4332,0,9.6464-1.4105,0,0-13.509,2.0654,0,2.292,9.9961,0.2015,1.1883,0.21409-1.1883,2.292-9.9961,2.0528,0,0,13.509-1.4105,0,0-9.6464,0.0251-1.4332-0.25187,1.4332" fill="#ff7f2a"/>
  <path style="text-align:start;" d="m128.63,1041.7c-0.32744-0.4427-0.68847-0.7864-1.0831-1.031-0.38621-0.2563-0.81019-0.3845-1.272-0.3845-1.0327,0-1.549,0.5185-1.549,1.5553,0,0.5126,0.11335,0.9204,0.34003,1.2232,0.23508,0.2914,0.55412,0.5536,0.95713,0.7865l0.86895,0.5242c0.76401,0.4662,1.3517,1.0136,1.7631,1.6428,0.41977,0.6291,0.62967,1.3982,0.62968,2.3068-0.00001,0.6757-0.0839,1.264-0.25188,1.765-0.16793,0.501-0.4072,0.9145-0.71783,1.2408-0.30226,0.3263-0.66748,0.5651-1.0956,0.7166-0.41979,0.1625-0.88576,0.2446-1.3979,0.2446-0.55411,0-1.0662-0.099-1.5364-0.2971-0.47016-0.198-0.88995-0.5243-1.2594-0.9787v-2.2719c0-0.07,0.021-0.1168,0.0629-0.1405,0.0419-0.034,0.0798-0.029,0.11335,0.018,0.1763,0.2797,0.35682,0.5302,0.54152,0.7515,0.18471,0.2214,0.38201,0.4079,0.5919,0.5592,0.2099,0.1515,0.43658,0.268,0.68006,0.3496,0.25188,0.082,0.52473,0.1224,0.81859,0.1224,0.62128,0,1.0663-0.1571,1.3349-0.472,0.27706-0.3261,0.41559-0.8214,0.4156-1.4854-0.00001-0.5127-0.12594-0.9379-0.37782-1.2757-0.25187-0.3496-0.61709-0.6699-1.0956-0.9611l-0.86895-0.5244c-0.31065-0.1864-0.60031-0.396-0.86896-0.6291-0.26028-0.233-0.48696-0.4952-0.68006-0.7864-0.18472-0.3028-0.33164-0.6466-0.44078-1.0312-0.10914-0.3843-0.16373-0.8328-0.16371-1.3454-0.00001-0.571,0.0756-1.072,0.22669-1.503,0.15111-0.4311,0.36521-0.7863,0.64227-1.066,0.27706-0.2913,0.60869-0.5127,0.9949-0.6641,0.3862-0.1515,0.81018-0.2272,1.272-0.2272,0.20148,0,0.41558,0.018,0.64227,0.053,0.22668,0.034,0.45337,0.093,0.68006,0.1752,0.22668,0.082,0.44496,0.1982,0.65486,0.3497,0.21829,0.1406,0.41979,0.3204,0.6045,0.5417v2.0272c-0.00001,0.07-0.021,0.1224-0.0629,0.1571-0.042,0.024-0.0798,0.018-0.11333-0.034" fill="#ff7f2a"/>
 </g>
</svg>
